HIERARCHY
ROOT SpineBase
{
  OFFSET 0.000000 0.000000 0.000000
  CHANNELS 6 Xposition Yposition Zposition Zrotation Xrotation Yrotation
  JOINT SpineMid
  {
    OFFSET 0.000000 30.602111 0.000000
    CHANNELS 3 Zrotation Xrotation Yrotation
    JOINT SpineShoulder
    {
      OFFSET -0.024837 22.803546 -0.709013
      CHANNELS 3 Zrotation Xrotation Yrotation
      JOINT Neck
      {
        OFFSET -0.064541 7.587686 -0.547988
        CHANNELS 3 Zrotation Xrotation Yrotation
        JOINT Head
        {
          OFFSET 4.016153 12.778237 -1.513149
          CHANNELS 3 Zrotation Xrotation Yrotation
          End Site
          {
            OFFSET 0 0 0
          }
        }
      }
      JOINT ShoulderLeft
      {
        OFFSET -14.694283 -0.384809 -6.517789
        CHANNELS 3 Zrotation Xrotation Yrotation
        JOINT ElbowLeft
        {
          OFFSET -5.356116 -24.809632 -0.984085
          CHANNELS 3 Zrotation Xrotation Yrotation
          JOINT WristLeft
          {
            OFFSET -0.886563 -23.695193 -5.422421
            CHANNELS 3 Zrotation Xrotation Yrotation
            JOINT HandLeft
            {
              OFFSET 1.308905 -5.415704 -0.336413
              CHANNELS 3 Zrotation Xrotation Yrotation
              JOINT HandTipLeft
              {
                OFFSET -0.225840 -7.031883 -0.345707
                CHANNELS 3 Zrotation Xrotation Yrotation
                End Site
                {
                  OFFSET 0 0 0
                }
              }
              JOINT ThumbLeft
              {
                OFFSET 2.212861 -0.686493 -2.910222
                CHANNELS 3 Zrotation Xrotation Yrotation
                End Site
                {
                  OFFSET 0 0 0
                }
              }
            }
          }
        }
      }
      JOINT ShoulderRight
      {
        OFFSET 17.044796 -4.388526 6.443153
        CHANNELS 3 Zrotation Xrotation Yrotation
        JOINT ElbowRight
        {
          OFFSET 1.586052 -24.860695 2.697641
          CHANNELS 3 Zrotation Xrotation Yrotation
          JOINT WristRight
          {
            OFFSET -0.258367 -23.263707 -6.110756
            CHANNELS 3 Zrotation Xrotation Yrotation
            JOINT HandRight
            {
              OFFSET -0.762476 -6.687393 -1.014521
              CHANNELS 3 Zrotation Xrotation Yrotation
              JOINT HandTipRight
              {
                OFFSET -0.068996 -5.470087 -1.325808
                CHANNELS 3 Zrotation Xrotation Yrotation
                End Site
                {
                  OFFSET 0 0 0
                }
              }
              JOINT ThumbRight
              {
                OFFSET -3.624614 1.438548 -3.288035
                CHANNELS 3 Zrotation Xrotation Yrotation
                End Site
                {
                  OFFSET 0 0 0
                }
              }
            }
          }
        }
      }
    }
  }
  JOINT HipLeft
  {
    OFFSET -7.814881 1.692386 -6.112224
    CHANNELS 3 Zrotation Xrotation Yrotation
    JOINT KneeLeft
    {
      OFFSET -7.749444 -29.485252 2.517974
      CHANNELS 3 Zrotation Xrotation Yrotation
      JOINT AnkleLeft
      {
        OFFSET -1.336899 -32.423149 8.969091
        CHANNELS 3 Zrotation Xrotation Yrotation
        JOINT FootLeft
        {
          OFFSET 4.804009 -6.136600 -4.919409
          CHANNELS 3 Zrotation Xrotation Yrotation
          End Site
          {
            OFFSET 0 0 0
          }
        }
      }
    }
  }
  JOINT HipRight
  {
    OFFSET 6.768392 0.183556 -0.416514
    CHANNELS 3 Zrotation Xrotation Yrotation
    JOINT KneeRight
    {
      OFFSET -3.102559 -30.916518 3.804491
      CHANNELS 3 Zrotation Xrotation Yrotation
      JOINT AnkleRight
      {
        OFFSET -7.654600 -30.892582 6.087663
        CHANNELS 3 Zrotation Xrotation Yrotation
        JOINT FootRight
        {
          OFFSET 3.211054 -3.864536 -12.150583
          CHANNELS 3 Zrotation Xrotation Yrotation
          End Site
          {
            OFFSET 0 0 0
          }
        }
      }
    }
  }
}
MOTION
Frames: 5
Frame Time: 0.033333
56.737454 72.800319 353.598466 -1.254625 -5.835865 -11.389355 0.192055 -0.179772 11.274898 -0.065941 -0.040677 -0.091683 11.922102 -5.718058 5.137647 0.000000 0.000000 0.000000 0.832696 -2.169025 1.888867 -2.032820 3.772610 -0.826821 -13.405850 -2.169189 -1.211355 8.263118 9.994568 1.119236 0.000000 0.000000 0.000000 0.000000 0.000000 0.000000 1.313261 3.444082 -0.090932 -0.613165 -6.381409 0.370492 13.982504 31.007374 -9.311157 -13.668089 -22.747731 1.631197 0.000000 0.000000 0.000000 0.000000 0.000000 0.000000 3.642145 6.170359 11.375708 -4.352359 -3.996008 -0.478053 -14.654551 31.788762 34.620178 0.000000 0.000000 0.000000 5.839615 38.952721 7.096526 3.432481 -22.932744 6.145545 -16.586894 -8.116105 7.522591 0.000000 0.000000 0.000000
56.762315 72.326738 352.474059 -1.632769 -6.735907 -9.243652 0.141170 -0.213257 9.083503 -0.096017 -0.039447 -0.115683 13.539129 -4.898224 5.143077 0.000000 0.000000 0.000000 0.730057 -2.628937 2.235932 -2.495326 3.638794 -0.751723 -11.910941 -0.757059 -1.276063 5.542925 8.296135 1.562882 0.000000 0.000000 0.000000 0.000000 0.000000 0.000000 2.196887 3.585753 -0.131607 -1.411701 -5.871743 0.486346 11.269831 28.369060 -7.385197 -12.281943 -22.286381 1.643964 0.000000 0.000000 0.000000 0.000000 0.000000 0.000000 4.183086 6.652400 9.204623 -4.334735 -3.905588 -0.530043 -15.939880 32.275969 36.210275 0.000000 0.000000 0.000000 7.802391 39.173992 4.256419 4.099997 -18.655899 5.087634 -17.953503 -12.232952 8.832790 0.000000 0.000000 0.000000
56.816929 71.758317 351.159387 -2.164964 -7.400821 -7.168300 0.114415 -0.198129 6.946315 -0.097294 -0.029345 -0.142052 15.322532 -5.102528 5.508015 0.000000 0.000000 0.000000 0.592099 -3.137144 2.537356 -2.601489 3.608471 -0.728854 -10.331706 0.646585 -1.296118 5.403125 6.801472 1.423501 0.000000 0.000000 0.000000 0.000000 0.000000 0.000000 2.897219 3.402075 -0.184718 -1.638263 -4.790890 0.560719 6.838897 22.619604 -4.394215 -8.229556 -18.852201 1.694208 0.000000 0.000000 0.000000 0.000000 0.000000 0.000000 4.729874 6.543586 7.188347 -4.239277 -3.562364 -0.681066 -16.859582 30.078304 36.008709 0.000000 0.000000 0.000000 10.098669 39.091866 1.451950 4.515339 -14.556659 3.905295 -19.153487 -16.170079 10.036218 0.000000 0.000000 0.000000
56.998537 71.106509 349.602184 -2.801490 -7.938883 -5.194644 0.105206 -0.167970 4.897265 -0.087787 -0.008561 -0.170583 16.890564 -5.072093 5.694923 0.000000 0.000000 0.000000 0.269033 -4.152714 2.920614 -2.334656 4.334233 -0.822405 -9.835760 2.735822 -0.838673 5.930496 4.495593 0.942451 0.000000 0.000000 0.000000 0.000000 0.000000 0.000000 3.365623 2.101255 -0.299921 -0.901556 -1.871707 0.536383 0.603759 17.709473 -1.395378 -2.267682 -15.194392 1.277541 0.000000 0.000000 0.000000 0.000000 0.000000 0.000000 5.113292 5.717771 5.430662 -3.705196 -3.132754 -0.881660 -18.641203 30.314984 37.895707 0.000000 0.000000 0.000000 12.261864 38.363539 -1.066908 4.910209 -10.378354 2.640231 -20.232811 -19.742206 11.448277 0.000000 0.000000 0.000000
57.217250 70.476970 347.830607 -3.570214 -7.957667 -3.456365 0.080933 -0.253462 3.078372 -0.087190 -0.034212 -0.204571 18.263854 -5.918022 6.169517 0.000000 0.000000 0.000000 0.099449 -4.919153 3.162325 -2.482357 4.246488 -0.674137 -8.411544 5.125598 -0.530278 7.627590 1.716221 0.323827 0.000000 0.000000 0.000000 0.000000 0.000000 0.000000 4.234489 -0.012329 -0.430703 -0.252361 0.402000 0.441553 -2.968024 17.557331 -0.113945 0.118556 -16.226713 1.086563 0.000000 0.000000 0.000000 0.000000 0.000000 0.000000 5.535827 3.846855 4.082706 -3.194347 -1.987248 -1.244350 -20.229696 30.466942 39.777920 0.000000 0.000000 0.000000 14.109403 37.322487 -3.119042 4.807199 -9.149392 2.143835 -20.393904 -20.350968 12.978694 0.000000 0.000000 0.000000
